<svg width="1116" height="272" viewBox="0 0 1116 272" fill="none" xmlns="http://www.w3.org/2000/svg">
<path d="M34.44 60.96C30.12 60.96 26.0933 60.2667 22.36 58.88C18.68 57.44 15.48 55.4133 12.76 52.8C10.04 50.1867 7.90667 47.12 6.36 43.6C4.86667 40.08 4.12 36.2133 4.12 32C4.12 27.7867 4.86667 23.92 6.36 20.4C7.90667 16.88 10.04 13.8133 12.76 11.2C15.5333 8.58666 18.76 6.58666 22.44 5.2C26.12 3.76 30.1467 3.04 34.52 3.04C39.3733 3.04 43.7467 3.89333 47.64 5.6C51.5867 7.25333 54.8933 9.70666 57.56 12.96L49.24 20.64C47.32 18.4533 45.1867 16.8267 42.84 15.76C40.4933 14.64 37.9333 14.08 35.16 14.08C32.5467 14.08 30.1467 14.5067 27.96 15.36C25.7733 16.2133 23.88 17.44 22.28 19.04C20.68 20.64 19.4267 22.5333 18.52 24.72C17.6667 26.9067 17.24 29.3333 17.24 32C17.24 34.6667 17.6667 37.0933 18.52 39.28C19.4267 41.4667 20.68 43.36 22.28 44.96C23.88 46.56 25.7733 47.7867 27.96 48.64C30.1467 49.4933 32.5467 49.92 35.16 49.92C37.9333 49.92 40.4933 49.3867 42.84 48.32C45.1867 47.2 47.32 45.52 49.24 43.28L57.56 50.96C54.8933 54.2133 51.5867 56.6933 47.64 58.4C43.7467 60.1067 39.3467 60.96 34.44 60.96ZM84.4275 60.64C79.8408 60.64 75.7608 59.68 72.1875 57.76C68.6675 55.84 65.8675 53.2267 63.7875 49.92C61.7608 46.56 60.7475 42.7467 60.7475 38.48C60.7475 34.16 61.7608 30.3467 63.7875 27.04C65.8675 23.68 68.6675 21.0667 72.1875 19.2C75.7608 17.28 79.8408 16.32 84.4275 16.32C88.9608 16.32 93.0142 17.28 96.5875 19.2C100.161 21.0667 102.961 23.6533 104.988 26.96C107.014 30.2667 108.028 34.1067 108.028 38.48C108.028 42.7467 107.014 46.56 104.988 49.92C102.961 53.2267 100.161 55.84 96.5875 57.76C93.0142 59.68 88.9608 60.64 84.4275 60.64ZM84.4275 50.4C86.5075 50.4 88.3742 49.92 90.0275 48.96C91.6808 48 92.9875 46.64 93.9475 44.88C94.9075 43.0667 95.3875 40.9333 95.3875 38.48C95.3875 35.9733 94.9075 33.84 93.9475 32.08C92.9875 30.32 91.6808 28.96 90.0275 28C88.3742 27.04 86.5075 26.56 84.4275 26.56C82.3475 26.56 80.4808 27.04 78.8275 28C77.1742 28.96 75.8408 30.32 74.8275 32.08C73.8675 33.84 73.3875 35.9733 73.3875 38.48C73.3875 40.9333 73.8675 43.0667 74.8275 44.88C75.8408 46.64 77.1742 48 78.8275 48.96C80.4808 49.92 82.3475 50.4 84.4275 50.4ZM171.489 16.32C174.903 16.32 177.916 17.0133 180.529 18.4C183.196 19.7333 185.276 21.8133 186.769 24.64C188.316 27.4133 189.089 30.9867 189.089 35.36V60H176.609V37.28C176.609 33.8133 175.889 31.2533 174.449 29.6C173.009 27.9467 170.983 27.12 168.369 27.12C166.556 27.12 164.929 27.5467 163.489 28.4C162.049 29.2 160.929 30.4267 160.129 32.08C159.329 33.7333 158.929 35.84 158.929 38.4V60H146.449V37.28C146.449 33.8133 145.729 31.2533 144.289 29.6C142.903 27.9467 140.903 27.12 138.289 27.12C136.476 27.12 134.849 27.5467 133.409 28.4C131.969 29.2 130.849 30.4267 130.049 32.08C129.249 33.7333 128.849 35.84 128.849 38.4V60H116.369V16.96H128.289V28.72L126.049 25.28C127.543 22.3467 129.649 20.1333 132.369 18.64C135.143 17.0933 138.289 16.32 141.809 16.32C145.756 16.32 149.196 17.3333 152.129 19.36C155.116 21.3333 157.089 24.3733 158.049 28.48L153.649 27.28C155.089 23.92 157.383 21.2533 160.529 19.28C163.729 17.3067 167.383 16.32 171.489 16.32ZM221.068 60.64C216.481 60.64 212.401 59.68 208.828 57.76C205.308 55.84 202.508 53.2267 200.428 49.92C198.401 46.56 197.388 42.7467 197.388 38.48C197.388 34.16 198.401 30.3467 200.428 27.04C202.508 23.68 205.308 21.0667 208.828 19.2C212.401 17.28 216.481 16.32 221.068 16.32C225.601 16.32 229.655 17.28 233.228 19.2C236.801 21.0667 239.601 23.6533 241.628 26.96C243.655 30.2667 244.668 34.1067 244.668 38.48C244.668 42.7467 243.655 46.56 241.628 49.92C239.601 53.2267 236.801 55.84 233.228 57.76C229.655 59.68 225.601 60.64 221.068 60.64ZM221.068 50.4C223.148 50.4 225.015 49.92 226.668 48.96C228.321 48 229.628 46.64 230.588 44.88C231.548 43.0667 232.028 40.9333 232.028 38.48C232.028 35.9733 231.548 33.84 230.588 32.08C229.628 30.32 228.321 28.96 226.668 28C225.015 27.04 223.148 26.56 221.068 26.56C218.988 26.56 217.121 27.04 215.468 28C213.815 28.96 212.481 30.32 211.468 32.08C210.508 33.84 210.028 35.9733 210.028 38.48C210.028 40.9333 210.508 43.0667 211.468 44.88C212.481 46.64 213.815 48 215.468 48.96C217.121 49.92 218.988 50.4 221.068 50.4ZM296.466 60.64C291.826 60.64 287.693 59.7067 284.066 57.84C280.44 55.92 277.586 53.28 275.506 49.92C273.48 46.56 272.466 42.7467 272.466 38.48C272.466 34.16 273.48 30.3467 275.506 27.04C277.586 23.68 280.44 21.0667 284.066 19.2C287.693 17.28 291.826 16.32 296.466 16.32C301 16.32 304.946 17.28 308.306 19.2C311.666 21.0667 314.146 23.76 315.746 27.28L306.066 32.48C304.946 30.4533 303.533 28.96 301.826 28C300.173 27.04 298.36 26.56 296.386 26.56C294.253 26.56 292.333 27.04 290.626 28C288.92 28.96 287.56 30.32 286.546 32.08C285.586 33.84 285.106 35.9733 285.106 38.48C285.106 40.9867 285.586 43.12 286.546 44.88C287.56 46.64 288.92 48 290.626 48.96C292.333 49.92 294.253 50.4 296.386 50.4C298.36 50.4 300.173 49.9467 301.826 49.04C303.533 48.08 304.946 46.56 306.066 44.48L315.746 49.76C314.146 53.2267 311.666 55.92 308.306 57.84C304.946 59.7067 301 60.64 296.466 60.64ZM341.092 60.64C337.519 60.64 334.319 59.9467 331.492 58.56C328.719 57.1733 326.559 55.0667 325.012 52.24C323.465 49.36 322.692 45.7067 322.692 41.28V16.96H335.172V39.44C335.172 43.0133 335.919 45.6533 337.412 47.36C338.959 49.0133 341.119 49.84 343.892 49.84C345.812 49.84 347.519 49.44 349.012 48.64C350.505 47.7867 351.679 46.5067 352.532 44.8C353.385 43.04 353.812 40.8533 353.812 38.24V16.96H366.292V60H354.452V48.16L356.612 51.6C355.172 54.5867 353.039 56.8533 350.212 58.4C347.439 59.8933 344.399 60.64 341.092 60.64ZM399.214 60.64C394.307 60.64 389.987 59.68 386.254 57.76C382.574 55.84 379.72 53.2267 377.694 49.92C375.667 46.56 374.654 42.7467 374.654 38.48C374.654 34.16 375.64 30.3467 377.614 27.04C379.64 23.68 382.387 21.0667 385.854 19.2C389.32 17.28 393.24 16.32 397.614 16.32C401.827 16.32 405.614 17.2267 408.974 19.04C412.387 20.8 415.08 23.36 417.054 26.72C419.027 30.0267 420.014 34 420.014 38.64C420.014 39.12 419.987 39.68 419.934 40.32C419.88 40.9067 419.827 41.4667 419.774 42H384.814V34.72H413.214L408.414 36.88C408.414 34.64 407.96 32.6933 407.054 31.04C406.147 29.3867 404.894 28.1067 403.294 27.2C401.694 26.24 399.827 25.76 397.694 25.76C395.56 25.76 393.667 26.24 392.014 27.2C390.414 28.1067 389.16 29.4133 388.254 31.12C387.347 32.7733 386.894 34.7467 386.894 37.04V38.96C386.894 41.3067 387.4 43.3867 388.414 45.2C389.48 46.96 390.947 48.32 392.814 49.28C394.734 50.1867 396.974 50.64 399.534 50.64C401.827 50.64 403.827 50.2933 405.534 49.6C407.294 48.9067 408.894 47.8667 410.334 46.48L416.974 53.68C415 55.92 412.52 57.6533 409.534 58.88C406.547 60.0533 403.107 60.64 399.214 60.64ZM454.483 16.32C457.896 16.32 460.936 17.0133 463.603 18.4C466.323 19.7333 468.456 21.8133 470.003 24.64C471.549 27.4133 472.323 30.9867 472.323 35.36V60H459.843V37.28C459.843 33.8133 459.069 31.2533 457.523 29.6C456.029 27.9467 453.896 27.12 451.123 27.12C449.149 27.12 447.363 27.5467 445.763 28.4C444.216 29.2 442.989 30.4533 442.083 32.16C441.229 33.8667 440.803 36.0533 440.803 38.72V60H428.323V16.96H440.243V28.88L438.003 25.28C439.549 22.4 441.763 20.1867 444.643 18.64C447.523 17.0933 450.803 16.32 454.483 16.32ZM501.235 60.64C496.168 60.64 492.222 59.36 489.395 56.8C486.568 54.1867 485.155 50.32 485.155 45.2V7.44H497.635V45.04C497.635 46.8533 498.115 48.2667 499.075 49.28C500.035 50.24 501.342 50.72 502.995 50.72C504.968 50.72 506.648 50.1867 508.035 49.12L511.395 57.92C510.115 58.8267 508.568 59.52 506.755 60C504.995 60.4267 503.155 60.64 501.235 60.64ZM478.515 27.52V17.92H508.355V27.52H478.515ZM537.553 60.64C532.966 60.64 528.886 59.68 525.313 57.76C521.793 55.84 518.993 53.2267 516.913 49.92C514.886 46.56 513.873 42.7467 513.873 38.48C513.873 34.16 514.886 30.3467 516.913 27.04C518.993 23.68 521.793 21.0667 525.313 19.2C528.886 17.28 532.966 16.32 537.553 16.32C542.086 16.32 546.139 17.28 549.713 19.2C553.286 21.0667 556.086 23.6533 558.113 26.96C560.139 30.2667 561.153 34.1067 561.153 38.48C561.153 42.7467 560.139 46.56 558.113 49.92C556.086 53.2267 553.286 55.84 549.713 57.76C546.139 59.68 542.086 60.64 537.553 60.64ZM537.553 50.4C539.633 50.4 541.499 49.92 543.153 48.96C544.806 48 546.113 46.64 547.073 44.88C548.033 43.0667 548.513 40.9333 548.513 38.48C548.513 35.9733 548.033 33.84 547.073 32.08C546.113 30.32 544.806 28.96 543.153 28C541.499 27.04 539.633 26.56 537.553 26.56C535.473 26.56 533.606 27.04 531.953 28C530.299 28.96 528.966 30.32 527.953 32.08C526.993 33.84 526.513 35.9733 526.513 38.48C526.513 40.9333 526.993 43.0667 527.953 44.88C528.966 46.64 530.299 48 531.953 48.96C533.606 49.92 535.473 50.4 537.553 50.4ZM610.631 60.64C606.577 60.64 602.924 59.7333 599.671 57.92C596.417 56.0533 593.831 53.4667 591.911 50.16C590.044 46.8533 589.111 42.96 589.111 38.48C589.111 33.9467 590.044 30.0267 591.911 26.72C593.831 23.4133 596.417 20.8533 599.671 19.04C602.924 17.2267 606.577 16.32 610.631 16.32C614.257 16.32 617.431 17.12 620.151 18.72C622.871 20.32 624.977 22.7467 626.471 26C627.964 29.2533 628.711 33.4133 628.711 38.48C628.711 43.4933 627.991 47.6533 626.551 50.96C625.111 54.2133 623.031 56.64 620.311 58.24C617.644 59.84 614.417 60.64 610.631 60.64ZM612.791 50.4C614.817 50.4 616.657 49.92 618.311 48.96C619.964 48 621.271 46.64 622.231 44.88C623.244 43.0667 623.751 40.9333 623.751 38.48C623.751 35.9733 623.244 33.84 622.231 32.08C621.271 30.32 619.964 28.96 618.311 28C616.657 27.04 614.817 26.56 612.791 26.56C610.711 26.56 608.844 27.04 607.191 28C605.537 28.96 604.204 30.32 603.191 32.08C602.231 33.84 601.751 35.9733 601.751 38.48C601.751 40.9333 602.231 43.0667 603.191 44.88C604.204 46.64 605.537 48 607.191 48.96C608.844 49.92 610.711 50.4 612.791 50.4ZM624.071 60V51.2L624.311 38.4L623.511 25.68V0.639997H635.991V60H624.071ZM668.901 60.64C663.995 60.64 659.675 59.68 655.941 57.76C652.261 55.84 649.408 53.2267 647.381 49.92C645.355 46.56 644.341 42.7467 644.341 38.48C644.341 34.16 645.328 30.3467 647.301 27.04C649.328 23.68 652.075 21.0667 655.541 19.2C659.008 17.28 662.928 16.32 667.301 16.32C671.515 16.32 675.301 17.2267 678.661 19.04C682.075 20.8 684.768 23.36 686.741 26.72C688.715 30.0267 689.701 34 689.701 38.64C689.701 39.12 689.675 39.68 689.621 40.32C689.568 40.9067 689.515 41.4667 689.461 42H654.501V34.72H682.901L678.101 36.88C678.101 34.64 677.648 32.6933 676.741 31.04C675.835 29.3867 674.581 28.1067 672.981 27.2C671.381 26.24 669.515 25.76 667.381 25.76C665.248 25.76 663.355 26.24 661.701 27.2C660.101 28.1067 658.848 29.4133 657.941 31.12C657.035 32.7733 656.581 34.7467 656.581 37.04V38.96C656.581 41.3067 657.088 43.3867 658.101 45.2C659.168 46.96 660.635 48.32 662.501 49.28C664.421 50.1867 666.661 50.64 669.221 50.64C671.515 50.64 673.515 50.2933 675.221 49.6C676.981 48.9067 678.581 47.8667 680.021 46.48L686.661 53.68C684.688 55.92 682.208 57.6533 679.221 58.88C676.235 60.0533 672.795 60.64 668.901 60.64ZM746.826 16.32C750.24 16.32 753.28 17.0133 755.946 18.4C758.666 19.7333 760.8 21.8133 762.346 24.64C763.893 27.4133 764.666 30.9867 764.666 35.36V60H752.186V37.28C752.186 33.8133 751.413 31.2533 749.866 29.6C748.373 27.9467 746.24 27.12 743.466 27.12C741.493 27.12 739.706 27.5467 738.106 28.4C736.56 29.2 735.333 30.4533 734.426 32.16C733.573 33.8667 733.146 36.0533 733.146 38.72V60H720.666V0.639997H733.146V28.88L730.346 25.28C731.893 22.4 734.106 20.1867 736.986 18.64C739.866 17.0933 743.146 16.32 746.826 16.32ZM802.379 60V51.6L801.579 49.76V34.72C801.579 32.0533 800.752 29.9733 799.099 28.48C797.499 26.9867 795.019 26.24 791.659 26.24C789.365 26.24 787.099 26.6133 784.859 27.36C782.672 28.0533 780.805 29.0133 779.259 30.24L774.779 21.52C777.125 19.8667 779.952 18.5867 783.259 17.68C786.565 16.7733 789.925 16.32 793.339 16.32C799.899 16.32 804.992 17.8667 808.619 20.96C812.245 24.0533 814.059 28.88 814.059 35.44V60H802.379ZM789.259 60.64C785.899 60.64 783.019 60.08 780.619 58.96C778.219 57.7867 776.379 56.2133 775.099 54.24C773.819 52.2667 773.179 50.0533 773.179 47.6C773.179 45.04 773.792 42.8 775.019 40.88C776.299 38.96 778.299 37.4667 781.019 36.4C783.739 35.28 787.285 34.72 791.659 34.72H803.099V42H793.019C790.085 42 788.059 42.48 786.939 43.44C785.872 44.4 785.339 45.6 785.339 47.04C785.339 48.64 785.952 49.92 787.179 50.88C788.459 51.7867 790.192 52.24 792.379 52.24C794.459 52.24 796.325 51.76 797.979 50.8C799.632 49.7867 800.832 48.32 801.579 46.4L803.499 52.16C802.592 54.9333 800.939 57.04 798.539 58.48C796.139 59.92 793.045 60.64 789.259 60.64ZM844.146 60.64C840.093 60.64 836.44 59.7333 833.186 57.92C829.933 56.0533 827.346 53.4667 825.426 50.16C823.56 46.8533 822.626 42.96 822.626 38.48C822.626 33.9467 823.56 30.0267 825.426 26.72C827.346 23.4133 829.933 20.8533 833.186 19.04C836.44 17.2267 840.093 16.32 844.146 16.32C847.773 16.32 850.946 17.12 853.666 18.72C856.386 20.32 858.493 22.7467 859.986 26C861.48 29.2533 862.226 33.4133 862.226 38.48C862.226 43.4933 861.506 47.6533 860.066 50.96C858.626 54.2133 856.546 56.64 853.826 58.24C851.16 59.84 847.933 60.64 844.146 60.64ZM846.306 50.4C848.333 50.4 850.173 49.92 851.826 48.96C853.48 48 854.786 46.64 855.746 44.88C856.76 43.0667 857.266 40.9333 857.266 38.48C857.266 35.9733 856.76 33.84 855.746 32.08C854.786 30.32 853.48 28.96 851.826 28C850.173 27.04 848.333 26.56 846.306 26.56C844.226 26.56 842.36 27.04 840.706 28C839.053 28.96 837.72 30.32 836.706 32.08C835.746 33.84 835.266 35.9733 835.266 38.48C835.266 40.9333 835.746 43.0667 836.706 44.88C837.72 46.64 839.053 48 840.706 48.96C842.36 49.92 844.226 50.4 846.306 50.4ZM857.586 60V51.2L857.826 38.4L857.026 25.68V0.639997H869.506V60H857.586ZM907.457 60V51.6L906.657 49.76V34.72C906.657 32.0533 905.83 29.9733 904.177 28.48C902.577 26.9867 900.097 26.24 896.737 26.24C894.444 26.24 892.177 26.6133 889.937 27.36C887.75 28.0533 885.884 29.0133 884.337 30.24L879.857 21.52C882.204 19.8667 885.03 18.5867 888.337 17.68C891.644 16.7733 895.004 16.32 898.417 16.32C904.977 16.32 910.07 17.8667 913.697 20.96C917.324 24.0533 919.137 28.88 919.137 35.44V60H907.457ZM894.337 60.64C890.977 60.64 888.097 60.08 885.697 58.96C883.297 57.7867 881.457 56.2133 880.177 54.24C878.897 52.2667 878.257 50.0533 878.257 47.6C878.257 45.04 878.87 42.8 880.097 40.88C881.377 38.96 883.377 37.4667 886.097 36.4C888.817 35.28 892.364 34.72 896.737 34.72H908.177V42H898.097C895.164 42 893.137 42.48 892.017 43.44C890.95 44.4 890.417 45.6 890.417 47.04C890.417 48.64 891.03 49.92 892.257 50.88C893.537 51.7867 895.27 52.24 897.457 52.24C899.537 52.24 901.404 51.76 903.057 50.8C904.71 49.7867 905.91 48.32 906.657 46.4L908.577 52.16C907.67 54.9333 906.017 57.04 903.617 58.48C901.217 59.92 898.124 60.64 894.337 60.64ZM944.912 60.64C941.232 60.64 937.685 60.2133 934.272 59.36C930.912 58.4533 928.245 57.3333 926.272 56L930.432 47.04C932.405 48.2667 934.725 49.28 937.392 50.08C940.112 50.8267 942.779 51.2 945.392 51.2C948.272 51.2 950.299 50.8533 951.472 50.16C952.699 49.4667 953.312 48.5067 953.312 47.28C953.312 46.2667 952.832 45.52 951.872 45.04C950.965 44.5067 949.739 44.1067 948.192 43.84C946.645 43.5733 944.939 43.3067 943.072 43.04C941.259 42.7733 939.419 42.4267 937.552 42C935.685 41.52 933.979 40.8267 932.432 39.92C930.885 39.0133 929.632 37.7867 928.672 36.24C927.765 34.6933 927.312 32.6933 927.312 30.24C927.312 27.52 928.085 25.12 929.632 23.04C931.232 20.96 933.525 19.3333 936.512 18.16C939.499 16.9333 943.072 16.32 947.232 16.32C950.165 16.32 953.152 16.64 956.192 17.28C959.232 17.92 961.765 18.8533 963.792 20.08L959.632 28.96C957.552 27.7333 955.445 26.9067 953.312 26.48C951.232 26 949.205 25.76 947.232 25.76C944.459 25.76 942.432 26.1333 941.152 26.88C939.872 27.6267 939.232 28.5867 939.232 29.76C939.232 30.8267 939.685 31.6267 940.592 32.16C941.552 32.6933 942.805 33.12 944.352 33.44C945.899 33.76 947.579 34.0533 949.392 34.32C951.259 34.5333 953.125 34.88 954.992 35.36C956.859 35.84 958.539 36.5333 960.032 37.44C961.579 38.2933 962.832 39.4933 963.792 41.04C964.752 42.5333 965.232 44.5067 965.232 46.96C965.232 49.6267 964.432 52 962.832 54.08C961.232 56.1067 958.912 57.7067 955.872 58.88C952.885 60.0533 949.232 60.64 944.912 60.64ZM970.772 72.32L976.052 53.12L977.812 60.32C975.519 60.32 973.625 59.6533 972.132 58.32C970.692 56.9867 969.972 55.1467 969.972 52.8C969.972 50.4533 970.719 48.5867 972.212 47.2C973.705 45.8133 975.545 45.12 977.732 45.12C979.972 45.12 981.812 45.84 983.252 47.28C984.692 48.6667 985.412 50.5067 985.412 52.8C985.412 53.4933 985.359 54.1867 985.252 54.88C985.145 55.52 984.932 56.32 984.612 57.28C984.345 58.1867 983.892 59.36 983.252 60.8L978.692 72.32H970.772ZM28.12 158.64C23.2133 158.64 18.8933 157.68 15.16 155.76C11.48 153.84 8.62667 151.227 6.6 147.92C4.57333 144.56 3.56 140.747 3.56 136.48C3.56 132.16 4.54667 128.347 6.52 125.04C8.54667 121.68 11.2933 119.067 14.76 117.2C18.2267 115.28 22.1467 114.32 26.52 114.32C30.7333 114.32 34.52 115.227 37.88 117.04C41.2933 118.8 43.9867 121.36 45.96 124.72C47.9333 128.027 48.92 132 48.92 136.64C48.92 137.12 48.8933 137.68 48.84 138.32C48.7867 138.907 48.7333 139.467 48.68 140H13.72V132.72H42.12L37.32 134.88C37.32 132.64 36.8667 130.693 35.96 129.04C35.0533 127.387 33.8 126.107 32.2 125.2C30.6 124.24 28.7333 123.76 26.6 123.76C24.4667 123.76 22.5733 124.24 20.92 125.2C19.32 126.107 18.0667 127.413 17.16 129.12C16.2533 130.773 15.8 132.747 15.8 135.04V136.96C15.8 139.307 16.3067 141.387 17.32 143.2C18.3867 144.96 19.8533 146.32 21.72 147.28C23.64 148.187 25.88 148.64 28.44 148.64C30.7333 148.64 32.7333 148.293 34.44 147.6C36.2 146.907 37.8 145.867 39.24 144.48L45.88 151.68C43.9067 153.92 41.4267 155.653 38.44 156.88C35.4533 158.053 32.0133 158.64 28.12 158.64ZM83.3888 114.32C86.8021 114.32 89.8421 115.013 92.5088 116.4C95.2288 117.733 97.3621 119.813 98.9088 122.64C100.455 125.413 101.229 128.987 101.229 133.36V158H88.7488V135.28C88.7488 131.813 87.9754 129.253 86.4288 127.6C84.9354 125.947 82.8021 125.12 80.0288 125.12C78.0554 125.12 76.2688 125.547 74.6688 126.4C73.1221 127.2 71.8954 128.453 70.9888 130.16C70.1354 131.867 69.7088 134.053 69.7088 136.72V158H57.2288V114.96H69.1488V126.88L66.9088 123.28C68.4554 120.4 70.6688 118.187 73.5488 116.64C76.4288 115.093 79.7088 114.32 83.3888 114.32ZM153.358 158.64C149.784 158.64 146.584 157.947 143.758 156.56C140.984 155.173 138.824 153.067 137.278 150.24C135.731 147.36 134.958 143.707 134.958 139.28V114.96H147.438V137.44C147.438 141.013 148.184 143.653 149.678 145.36C151.224 147.013 153.384 147.84 156.158 147.84C158.078 147.84 159.784 147.44 161.278 146.64C162.771 145.787 163.944 144.507 164.798 142.8C165.651 141.04 166.078 138.853 166.078 136.24V114.96H178.558V158H166.718V146.16L168.878 149.6C167.438 152.587 165.304 154.853 162.478 156.4C159.704 157.893 156.664 158.64 153.358 158.64ZM216.279 114.32C219.693 114.32 222.733 115.013 225.399 116.4C228.119 117.733 230.253 119.813 231.799 122.64C233.346 125.413 234.119 128.987 234.119 133.36V158H221.639V135.28C221.639 131.813 220.866 129.253 219.319 127.6C217.826 125.947 215.693 125.12 212.919 125.12C210.946 125.12 209.159 125.547 207.559 126.4C206.013 127.2 204.786 128.453 203.879 130.16C203.026 131.867 202.599 134.053 202.599 136.72V158H190.119V114.96H202.039V126.88L199.799 123.28C201.346 120.4 203.559 118.187 206.439 116.64C209.319 115.093 212.599 114.32 216.279 114.32ZM268.088 158V114.96H280.008V127.12L278.328 123.6C279.608 120.56 281.661 118.267 284.488 116.72C287.315 115.12 290.755 114.32 294.808 114.32V125.84C294.275 125.787 293.795 125.76 293.368 125.76C292.941 125.707 292.488 125.68 292.008 125.68C288.595 125.68 285.821 126.667 283.688 128.64C281.608 130.56 280.568 133.573 280.568 137.68V158H268.088ZM323.276 158.64C318.37 158.64 314.05 157.68 310.316 155.76C306.636 153.84 303.783 151.227 301.756 147.92C299.73 144.56 298.716 140.747 298.716 136.48C298.716 132.16 299.703 128.347 301.676 125.04C303.703 121.68 306.45 119.067 309.916 117.2C313.383 115.28 317.303 114.32 321.676 114.32C325.89 114.32 329.676 115.227 333.036 117.04C336.45 118.8 339.143 121.36 341.116 124.72C343.09 128.027 344.076 132 344.076 136.64C344.076 137.12 344.05 137.68 343.996 138.32C343.943 138.907 343.89 139.467 343.836 140H308.876V132.72H337.276L332.476 134.88C332.476 132.64 332.023 130.693 331.116 129.04C330.21 127.387 328.956 126.107 327.356 125.2C325.756 124.24 323.89 123.76 321.756 123.76C319.623 123.76 317.73 124.24 316.076 125.2C314.476 126.107 313.223 127.413 312.316 129.12C311.41 130.773 310.956 132.747 310.956 135.04V136.96C310.956 139.307 311.463 141.387 312.476 143.2C313.543 144.96 315.01 146.32 316.876 147.28C318.796 148.187 321.036 148.64 323.596 148.64C325.89 148.64 327.89 148.293 329.596 147.6C331.356 146.907 332.956 145.867 334.396 144.48L341.036 151.68C339.063 153.92 336.583 155.653 333.596 156.88C330.61 158.053 327.17 158.64 323.276 158.64ZM352.385 158V114.96H364.865V158H352.385ZM358.625 108.96C356.332 108.96 354.465 108.293 353.025 106.96C351.585 105.627 350.865 103.973 350.865 102C350.865 100.027 351.585 98.3733 353.025 97.04C354.465 95.7067 356.332 95.04 358.625 95.04C360.918 95.04 362.785 95.68 364.225 96.96C365.665 98.1867 366.385 99.7867 366.385 101.76C366.385 103.84 365.665 105.573 364.225 106.96C362.838 108.293 360.972 108.96 358.625 108.96ZM402.608 114.32C406.021 114.32 409.061 115.013 411.728 116.4C414.448 117.733 416.581 119.813 418.128 122.64C419.674 125.413 420.448 128.987 420.448 133.36V158H407.968V135.28C407.968 131.813 407.194 129.253 405.648 127.6C404.154 125.947 402.021 125.12 399.248 125.12C397.274 125.12 395.488 125.547 393.888 126.4C392.341 127.2 391.114 128.453 390.208 130.16C389.354 131.867 388.928 134.053 388.928 136.72V158H376.448V114.96H388.368V126.88L386.128 123.28C387.674 120.4 389.888 118.187 392.768 116.64C395.648 115.093 398.928 114.32 402.608 114.32ZM452.553 158.64C447.966 158.64 443.886 157.68 440.313 155.76C436.793 153.84 433.993 151.227 431.913 147.92C429.886 144.56 428.873 140.747 428.873 136.48C428.873 132.16 429.886 128.347 431.913 125.04C433.993 121.68 436.793 119.067 440.313 117.2C443.886 115.28 447.966 114.32 452.553 114.32C457.086 114.32 461.139 115.28 464.713 117.2C468.286 119.067 471.086 121.653 473.113 124.96C475.139 128.267 476.153 132.107 476.153 136.48C476.153 140.747 475.139 144.56 473.113 147.92C471.086 151.227 468.286 153.84 464.713 155.76C461.139 157.68 457.086 158.64 452.553 158.64ZM452.553 148.4C454.633 148.4 456.499 147.92 458.153 146.96C459.806 146 461.113 144.64 462.073 142.88C463.033 141.067 463.513 138.933 463.513 136.48C463.513 133.973 463.033 131.84 462.073 130.08C461.113 128.32 459.806 126.96 458.153 126C456.499 125.04 454.633 124.56 452.553 124.56C450.473 124.56 448.606 125.04 446.953 126C445.299 126.96 443.966 128.32 442.953 130.08C441.993 131.84 441.513 133.973 441.513 136.48C441.513 138.933 441.993 141.067 442.953 142.88C443.966 144.64 445.299 146 446.953 146.96C448.606 147.92 450.473 148.4 452.553 148.4ZM533.311 114.32C536.724 114.32 539.764 115.013 542.431 116.4C545.151 117.733 547.284 119.813 548.831 122.64C550.377 125.413 551.151 128.987 551.151 133.36V158H538.671V135.28C538.671 131.813 537.897 129.253 536.351 127.6C534.857 125.947 532.724 125.12 529.951 125.12C527.977 125.12 526.191 125.547 524.591 126.4C523.044 127.2 521.817 128.453 520.911 130.16C520.057 131.867 519.631 134.053 519.631 136.72V158H507.151V114.96H519.071V126.88L516.831 123.28C518.377 120.4 520.591 118.187 523.471 116.64C526.351 115.093 529.631 114.32 533.311 114.32ZM583.256 158.64C578.669 158.64 574.589 157.68 571.016 155.76C567.496 153.84 564.696 151.227 562.616 147.92C560.589 144.56 559.576 140.747 559.576 136.48C559.576 132.16 560.589 128.347 562.616 125.04C564.696 121.68 567.496 119.067 571.016 117.2C574.589 115.28 578.669 114.32 583.256 114.32C587.789 114.32 591.842 115.28 595.416 117.2C598.989 119.067 601.789 121.653 603.816 124.96C605.842 128.267 606.856 132.107 606.856 136.48C606.856 140.747 605.842 144.56 603.816 147.92C601.789 151.227 598.989 153.84 595.416 155.76C591.842 157.68 587.789 158.64 583.256 158.64ZM583.256 148.4C585.336 148.4 587.202 147.92 588.856 146.96C590.509 146 591.816 144.64 592.776 142.88C593.736 141.067 594.216 138.933 594.216 136.48C594.216 133.973 593.736 131.84 592.776 130.08C591.816 128.32 590.509 126.96 588.856 126C587.202 125.04 585.336 124.56 583.256 124.56C581.176 124.56 579.309 125.04 577.656 126C576.002 126.96 574.669 128.32 573.656 130.08C572.696 131.84 572.216 133.973 572.216 136.48C572.216 138.933 572.696 141.067 573.656 142.88C574.669 144.64 576.002 146 577.656 146.96C579.309 147.92 581.176 148.4 583.256 148.4ZM692.974 114.32C696.387 114.32 699.4 115.013 702.014 116.4C704.68 117.733 706.76 119.813 708.254 122.64C709.8 125.413 710.574 128.987 710.574 133.36V158H698.094V135.28C698.094 131.813 697.374 129.253 695.934 127.6C694.494 125.947 692.467 125.12 689.854 125.12C688.04 125.12 686.414 125.547 684.974 126.4C683.534 127.2 682.414 128.427 681.614 130.08C680.814 131.733 680.414 133.84 680.414 136.4V158H667.934V135.28C667.934 131.813 667.214 129.253 665.774 127.6C664.387 125.947 662.387 125.12 659.774 125.12C657.96 125.12 656.334 125.547 654.894 126.4C653.454 127.2 652.334 128.427 651.534 130.08C650.734 131.733 650.334 133.84 650.334 136.4V158H637.854V114.96H649.774V126.72L647.534 123.28C649.027 120.347 651.134 118.133 653.854 116.64C656.627 115.093 659.774 114.32 663.294 114.32C667.24 114.32 670.68 115.333 673.614 117.36C676.6 119.333 678.574 122.373 679.534 126.48L675.134 125.28C676.574 121.92 678.867 119.253 682.014 117.28C685.214 115.307 688.867 114.32 692.974 114.32ZM739.92 158.64C736.347 158.64 733.147 157.947 730.32 156.56C727.547 155.173 725.387 153.067 723.84 150.24C722.293 147.36 721.52 143.707 721.52 139.28V114.96H734V137.44C734 141.013 734.747 143.653 736.24 145.36C737.787 147.013 739.947 147.84 742.72 147.84C744.64 147.84 746.347 147.44 747.84 146.64C749.333 145.787 750.507 144.507 751.36 142.8C752.213 141.04 752.64 138.853 752.64 136.24V114.96H765.12V158H753.28V146.16L755.44 149.6C754 152.587 751.867 154.853 749.04 156.4C746.267 157.893 743.227 158.64 739.92 158.64ZM782.122 174.16C779.882 174.16 777.669 173.813 775.482 173.12C773.295 172.427 771.509 171.467 770.122 170.24L774.682 161.36C775.642 162.213 776.735 162.88 777.962 163.36C779.242 163.84 780.495 164.08 781.722 164.08C783.482 164.08 784.869 163.653 785.882 162.8C786.949 162 787.909 160.64 788.762 158.72L791.002 153.44L791.962 152.08L807.402 114.96H819.402L799.962 160.64C798.575 164.107 796.975 166.827 795.162 168.8C793.402 170.773 791.429 172.16 789.242 172.96C787.109 173.76 784.735 174.16 782.122 174.16ZM789.482 159.68L770.282 114.96H783.162L798.042 150.96L789.482 159.68ZM847.151 158V98.64H859.631V158H847.151ZM892.573 158.64C887.666 158.64 883.346 157.68 879.613 155.76C875.933 153.84 873.08 151.227 871.053 147.92C869.026 144.56 868.013 140.747 868.013 136.48C868.013 132.16 869 128.347 870.973 125.04C873 121.68 875.746 119.067 879.213 117.2C882.68 115.28 886.6 114.32 890.973 114.32C895.186 114.32 898.973 115.227 902.333 117.04C905.746 118.8 908.44 121.36 910.413 124.72C912.386 128.027 913.373 132 913.373 136.64C913.373 137.12 913.346 137.68 913.293 138.32C913.24 138.907 913.186 139.467 913.133 140H878.173V132.72H906.573L901.773 134.88C901.773 132.64 901.32 130.693 900.413 129.04C899.506 127.387 898.253 126.107 896.653 125.2C895.053 124.24 893.186 123.76 891.053 123.76C888.92 123.76 887.026 124.24 885.373 125.2C883.773 126.107 882.52 127.413 881.613 129.12C880.706 130.773 880.253 132.747 880.253 135.04V136.96C880.253 139.307 880.76 141.387 881.773 143.2C882.84 144.96 884.306 146.32 886.173 147.28C888.093 148.187 890.333 148.64 892.893 148.64C895.186 148.64 897.186 148.293 898.893 147.6C900.653 146.907 902.253 145.867 903.693 144.48L910.333 151.68C908.36 153.92 905.88 155.653 902.893 156.88C899.906 158.053 896.466 158.64 892.573 158.64ZM918.482 174.16C916.562 174.16 914.722 173.947 912.962 173.52C911.202 173.147 909.709 172.56 908.482 171.76L911.842 162.72C913.282 163.733 915.042 164.24 917.122 164.24C918.669 164.24 919.895 163.707 920.802 162.64C921.762 161.627 922.242 160.08 922.242 158V114.96H934.722V157.92C934.722 162.88 933.309 166.827 930.482 169.76C927.655 172.693 923.655 174.16 918.482 174.16ZM928.482 108.96C926.189 108.96 924.322 108.293 922.882 106.96C921.442 105.627 920.722 103.973 920.722 102C920.722 100.027 921.442 98.3733 922.882 97.04C924.322 95.7067 926.189 95.04 928.482 95.04C930.775 95.04 932.642 95.68 934.082 96.96C935.522 98.1867 936.242 99.7867 936.242 101.76C936.242 103.84 935.522 105.573 934.082 106.96C932.695 108.293 930.829 108.96 928.482 108.96ZM972.613 158V149.6L971.813 147.76V132.72C971.813 130.053 970.986 127.973 969.333 126.48C967.733 124.987 965.253 124.24 961.893 124.24C959.6 124.24 957.333 124.613 955.093 125.36C952.906 126.053 951.04 127.013 949.493 128.24L945.013 119.52C947.36 117.867 950.186 116.587 953.493 115.68C956.8 114.773 960.16 114.32 963.573 114.32C970.133 114.32 975.226 115.867 978.853 118.96C982.48 122.053 984.293 126.88 984.293 133.44V158H972.613ZM959.493 158.64C956.133 158.64 953.253 158.08 950.853 156.96C948.453 155.787 946.613 154.213 945.333 152.24C944.053 150.267 943.413 148.053 943.413 145.6C943.413 143.04 944.026 140.8 945.253 138.88C946.533 136.96 948.533 135.467 951.253 134.4C953.973 133.28 957.52 132.72 961.893 132.72H973.333V140H963.253C960.32 140 958.293 140.48 957.173 141.44C956.106 142.4 955.573 143.6 955.573 145.04C955.573 146.64 956.186 147.92 957.413 148.88C958.693 149.787 960.426 150.24 962.613 150.24C964.693 150.24 966.56 149.76 968.213 148.8C969.866 147.787 971.066 146.32 971.813 144.4L973.733 150.16C972.826 152.933 971.173 155.04 968.773 156.48C966.373 157.92 963.28 158.64 959.493 158.64ZM1021.75 114.32C1025.16 114.32 1028.2 115.013 1030.87 116.4C1033.59 117.733 1035.72 119.813 1037.27 122.64C1038.81 125.413 1039.59 128.987 1039.59 133.36V158H1027.11V135.28C1027.11 131.813 1026.33 129.253 1024.79 127.6C1023.29 125.947 1021.16 125.12 1018.39 125.12C1016.41 125.12 1014.63 125.547 1013.03 126.4C1011.48 127.2 1010.25 128.453 1009.35 130.16C1008.49 131.867 1008.07 134.053 1008.07 136.72V158H995.588V114.96H1007.51V126.88L1005.27 123.28C1006.81 120.4 1009.03 118.187 1011.91 116.64C1014.79 115.093 1018.07 114.32 1021.75 114.32ZM1071.69 158.64C1067.11 158.64 1063.03 157.68 1059.45 155.76C1055.93 153.84 1053.13 151.227 1051.05 147.92C1049.03 144.56 1048.01 140.747 1048.01 136.48C1048.01 132.16 1049.03 128.347 1051.05 125.04C1053.13 121.68 1055.93 119.067 1059.45 117.2C1063.03 115.28 1067.11 114.32 1071.69 114.32C1076.23 114.32 1080.28 115.28 1083.85 117.2C1087.43 119.067 1090.23 121.653 1092.25 124.96C1094.28 128.267 1095.29 132.107 1095.29 136.48C1095.29 140.747 1094.28 144.56 1092.25 147.92C1090.23 151.227 1087.43 153.84 1083.85 155.76C1080.28 157.68 1076.23 158.64 1071.69 158.64ZM1071.69 148.4C1073.77 148.4 1075.64 147.92 1077.29 146.96C1078.95 146 1080.25 144.64 1081.21 142.88C1082.17 141.067 1082.65 138.933 1082.65 136.48C1082.65 133.973 1082.17 131.84 1081.21 130.08C1080.25 128.32 1078.95 126.96 1077.29 126C1075.64 125.04 1073.77 124.56 1071.69 124.56C1069.61 124.56 1067.75 125.04 1066.09 126C1064.44 126.96 1063.11 128.32 1062.09 130.08C1061.13 131.84 1060.65 133.973 1060.65 136.48C1060.65 138.933 1061.13 141.067 1062.09 142.88C1063.11 144.64 1064.44 146 1066.09 146.96C1067.75 147.92 1069.61 148.4 1071.69 148.4ZM1101.01 170.32L1106.29 151.12L1108.05 158.32C1105.75 158.32 1103.86 157.653 1102.37 156.32C1100.93 154.987 1100.21 153.147 1100.21 150.8C1100.21 148.453 1100.95 146.587 1102.45 145.2C1103.94 143.813 1105.78 143.12 1107.97 143.12C1110.21 143.12 1112.05 143.84 1113.49 145.28C1114.93 146.667 1115.65 148.507 1115.65 150.8C1115.65 151.493 1115.59 152.187 1115.49 152.88C1115.38 153.52 1115.17 154.32 1114.85 155.28C1114.58 156.187 1114.13 157.36 1113.49 158.8L1108.93 170.32H1101.01ZM18.44 256L0.36 212.96H13.24L28.28 250H21.88L37.48 212.96H49.48L31.32 256H18.44ZM54.5725 256V212.96H67.0525V256H54.5725ZM60.8125 206.96C58.5192 206.96 56.6525 206.293 55.2125 204.96C53.7725 203.627 53.0525 201.973 53.0525 200C53.0525 198.027 53.7725 196.373 55.2125 195.04C56.6525 193.707 58.5192 193.04 60.8125 193.04C63.1058 193.04 64.9725 193.68 66.4125 194.96C67.8525 196.187 68.5725 197.787 68.5725 199.76C68.5725 201.84 67.8525 203.573 66.4125 204.96C65.0258 206.293 63.1592 206.96 60.8125 206.96ZM90.315 256L72.235 212.96H85.115L100.155 250H93.755L109.355 212.96H121.355L103.195 256H90.315ZM126.448 256V212.96H138.928V256H126.448ZM132.688 206.96C130.394 206.96 128.528 206.293 127.088 204.96C125.648 203.627 124.928 201.973 124.928 200C124.928 198.027 125.648 196.373 127.088 195.04C128.528 193.707 130.394 193.04 132.688 193.04C134.981 193.04 136.848 193.68 138.288 194.96C139.728 196.187 140.448 197.787 140.448 199.76C140.448 201.84 139.728 203.573 138.288 204.96C136.901 206.293 135.034 206.96 132.688 206.96ZM176.91 256V247.6L176.11 245.76V230.72C176.11 228.053 175.283 225.973 173.63 224.48C172.03 222.987 169.55 222.24 166.19 222.24C163.897 222.24 161.63 222.613 159.39 223.36C157.203 224.053 155.337 225.013 153.79 226.24L149.31 217.52C151.657 215.867 154.483 214.587 157.79 213.68C161.097 212.773 164.457 212.32 167.87 212.32C174.43 212.32 179.523 213.867 183.15 216.96C186.777 220.053 188.59 224.88 188.59 231.44V256H176.91ZM163.79 256.64C160.43 256.64 157.55 256.08 155.15 254.96C152.75 253.787 150.91 252.213 149.63 250.24C148.35 248.267 147.71 246.053 147.71 243.6C147.71 241.04 148.323 238.8 149.55 236.88C150.83 234.96 152.83 233.467 155.55 232.4C158.27 231.28 161.817 230.72 166.19 230.72H177.63V238H167.55C164.617 238 162.59 238.48 161.47 239.44C160.403 240.4 159.87 241.6 159.87 243.04C159.87 244.64 160.483 245.92 161.71 246.88C162.99 247.787 164.723 248.24 166.91 248.24C168.99 248.24 170.857 247.76 172.51 246.8C174.163 245.787 175.363 244.32 176.11 242.4L178.03 248.16C177.123 250.933 175.47 253.04 173.07 254.48C170.67 255.92 167.577 256.64 163.79 256.64ZM240.701 256.64C237.128 256.64 233.928 255.947 231.101 254.56C228.328 253.173 226.168 251.067 224.621 248.24C223.075 245.36 222.301 241.707 222.301 237.28V212.96H234.781V235.44C234.781 239.013 235.528 241.653 237.021 243.36C238.568 245.013 240.728 245.84 243.501 245.84C245.421 245.84 247.128 245.44 248.621 244.64C250.115 243.787 251.288 242.507 252.141 240.8C252.995 239.04 253.421 236.853 253.421 234.24V212.96H265.901V256H254.061V244.16L256.221 247.6C254.781 250.587 252.648 252.853 249.821 254.4C247.048 255.893 244.008 256.64 240.701 256.64ZM303.623 212.32C307.036 212.32 310.076 213.013 312.743 214.4C315.463 215.733 317.596 217.813 319.143 220.64C320.69 223.413 321.463 226.987 321.463 231.36V256H308.983V233.28C308.983 229.813 308.21 227.253 306.663 225.6C305.17 223.947 303.036 223.12 300.263 223.12C298.29 223.12 296.503 223.547 294.903 224.4C293.356 225.2 292.13 226.453 291.223 228.16C290.37 229.867 289.943 232.053 289.943 234.72V256H277.463V212.96H289.383V224.88L287.143 221.28C288.69 218.4 290.903 216.187 293.783 214.64C296.663 213.093 299.943 212.32 303.623 212.32ZM359.176 256V247.6L358.376 245.76V230.72C358.376 228.053 357.549 225.973 355.896 224.48C354.296 222.987 351.816 222.24 348.456 222.24C346.162 222.24 343.896 222.613 341.656 223.36C339.469 224.053 337.602 225.013 336.056 226.24L331.576 217.52C333.922 215.867 336.749 214.587 340.056 213.68C343.362 212.773 346.722 212.32 350.136 212.32C356.696 212.32 361.789 213.867 365.416 216.96C369.042 220.053 370.856 224.88 370.856 231.44V256H359.176ZM346.056 256.64C342.696 256.64 339.816 256.08 337.416 254.96C335.016 253.787 333.176 252.213 331.896 250.24C330.616 248.267 329.976 246.053 329.976 243.6C329.976 241.04 330.589 238.8 331.816 236.88C333.096 234.96 335.096 233.467 337.816 232.4C340.536 231.28 344.082 230.72 348.456 230.72H359.896V238H349.816C346.882 238 344.856 238.48 343.736 239.44C342.669 240.4 342.136 241.6 342.136 243.04C342.136 244.64 342.749 245.92 343.976 246.88C345.256 247.787 346.989 248.24 349.176 248.24C351.256 248.24 353.122 247.76 354.776 246.8C356.429 245.787 357.629 244.32 358.376 242.4L360.296 248.16C359.389 250.933 357.736 253.04 355.336 254.48C352.936 255.92 349.842 256.64 346.056 256.64ZM430.247 256.64C426.62 256.64 423.447 255.84 420.727 254.24C418.007 252.64 415.874 250.213 414.327 246.96C412.834 243.653 412.087 239.493 412.087 234.48C412.087 229.413 412.807 225.253 414.247 222C415.687 218.747 417.767 216.32 420.487 214.72C423.207 213.12 426.46 212.32 430.247 212.32C434.3 212.32 437.927 213.253 441.127 215.12C444.38 216.933 446.94 219.493 448.807 222.8C450.727 226.107 451.687 230 451.687 234.48C451.687 239.013 450.727 242.933 448.807 246.24C446.94 249.547 444.38 252.107 441.127 253.92C437.927 255.733 434.3 256.64 430.247 256.64ZM404.807 271.52V212.96H416.727V221.76L416.487 234.56L417.287 247.28V271.52H404.807ZM428.087 246.4C430.167 246.4 432.007 245.92 433.607 244.96C435.26 244 436.567 242.64 437.527 240.88C438.54 239.067 439.047 236.933 439.047 234.48C439.047 231.973 438.54 229.84 437.527 228.08C436.567 226.32 435.26 224.96 433.607 224C432.007 223.04 430.167 222.56 428.087 222.56C426.007 222.56 424.14 223.04 422.487 224C420.834 224.96 419.527 226.32 418.567 228.08C417.607 229.84 417.127 231.973 417.127 234.48C417.127 236.933 417.607 239.067 418.567 240.88C419.527 242.64 420.834 244 422.487 244.96C424.14 245.92 426.007 246.4 428.087 246.4ZM460.041 256V212.96H471.961V225.12L470.281 221.6C471.561 218.56 473.615 216.267 476.441 214.72C479.268 213.12 482.708 212.32 486.761 212.32V223.84C486.228 223.787 485.748 223.76 485.321 223.76C484.895 223.707 484.441 223.68 483.961 223.68C480.548 223.68 477.775 224.667 475.641 226.64C473.561 228.56 472.521 231.573 472.521 235.68V256H460.041ZM494.26 256V212.96H506.74V256H494.26ZM500.5 206.96C498.207 206.96 496.34 206.293 494.9 204.96C493.46 203.627 492.74 201.973 492.74 200C492.74 198.027 493.46 196.373 494.9 195.04C496.34 193.707 498.207 193.04 500.5 193.04C502.793 193.04 504.66 193.68 506.1 194.96C507.54 196.187 508.26 197.787 508.26 199.76C508.26 201.84 507.54 203.573 506.1 204.96C504.713 206.293 502.847 206.96 500.5 206.96ZM544.483 212.32C547.896 212.32 550.936 213.013 553.603 214.4C556.323 215.733 558.456 217.813 560.003 220.64C561.549 223.413 562.323 226.987 562.323 231.36V256H549.843V233.28C549.843 229.813 549.069 227.253 547.523 225.6C546.029 223.947 543.896 223.12 541.123 223.12C539.149 223.12 537.363 223.547 535.763 224.4C534.216 225.2 532.989 226.453 532.083 228.16C531.229 229.867 530.803 232.053 530.803 234.72V256H518.323V212.96H530.243V224.88L528.003 221.28C529.549 218.4 531.763 216.187 534.643 214.64C537.523 213.093 540.803 212.32 544.483 212.32ZM594.748 256.64C590.108 256.64 585.974 255.707 582.348 253.84C578.721 251.92 575.868 249.28 573.788 245.92C571.761 242.56 570.748 238.747 570.748 234.48C570.748 230.16 571.761 226.347 573.788 223.04C575.868 219.68 578.721 217.067 582.348 215.2C585.974 213.28 590.108 212.32 594.748 212.32C599.281 212.32 603.228 213.28 606.588 215.2C609.948 217.067 612.428 219.76 614.028 223.28L604.348 228.48C603.228 226.453 601.814 224.96 600.108 224C598.454 223.04 596.641 222.56 594.668 222.56C592.534 222.56 590.614 223.04 588.908 224C587.201 224.96 585.841 226.32 584.828 228.08C583.868 229.84 583.388 231.973 583.388 234.48C583.388 236.987 583.868 239.12 584.828 240.88C585.841 242.64 587.201 244 588.908 244.96C590.614 245.92 592.534 246.4 594.668 246.4C596.641 246.4 598.454 245.947 600.108 245.04C601.814 244.08 603.228 242.56 604.348 240.48L614.028 245.76C612.428 249.227 609.948 251.92 606.588 253.84C603.228 255.707 599.281 256.64 594.748 256.64ZM642.026 256.64C637.12 256.64 632.8 255.68 629.066 253.76C625.386 251.84 622.533 249.227 620.506 245.92C618.48 242.56 617.466 238.747 617.466 234.48C617.466 230.16 618.453 226.347 620.426 223.04C622.453 219.68 625.2 217.067 628.666 215.2C632.133 213.28 636.053 212.32 640.426 212.32C644.64 212.32 648.426 213.227 651.786 215.04C655.2 216.8 657.893 219.36 659.866 222.72C661.84 226.027 662.826 230 662.826 234.64C662.826 235.12 662.8 235.68 662.746 236.32C662.693 236.907 662.64 237.467 662.586 238H627.626V230.72H656.026L651.226 232.88C651.226 230.64 650.773 228.693 649.866 227.04C648.96 225.387 647.706 224.107 646.106 223.2C644.506 222.24 642.64 221.76 640.506 221.76C638.373 221.76 636.48 222.24 634.826 223.2C633.226 224.107 631.973 225.413 631.066 227.12C630.16 228.773 629.706 230.747 629.706 233.04V234.96C629.706 237.307 630.213 239.387 631.226 241.2C632.293 242.96 633.76 244.32 635.626 245.28C637.546 246.187 639.786 246.64 642.346 246.64C644.64 246.64 646.64 246.293 648.346 245.6C650.106 244.907 651.706 243.867 653.146 242.48L659.786 249.68C657.813 251.92 655.333 253.653 652.346 254.88C649.36 256.053 645.92 256.64 642.026 256.64ZM685.615 256.64C681.935 256.64 678.388 256.213 674.975 255.36C671.615 254.453 668.948 253.333 666.975 252L671.135 243.04C673.108 244.267 675.428 245.28 678.095 246.08C680.815 246.827 683.482 247.2 686.095 247.2C688.975 247.2 691.002 246.853 692.175 246.16C693.402 245.467 694.015 244.507 694.015 243.28C694.015 242.267 693.535 241.52 692.575 241.04C691.668 240.507 690.442 240.107 688.895 239.84C687.348 239.573 685.642 239.307 683.775 239.04C681.962 238.773 680.122 238.427 678.255 238C676.388 237.52 674.682 236.827 673.135 235.92C671.588 235.013 670.335 233.787 669.375 232.24C668.468 230.693 668.015 228.693 668.015 226.24C668.015 223.52 668.788 221.12 670.335 219.04C671.935 216.96 674.228 215.333 677.215 214.16C680.202 212.933 683.775 212.32 687.935 212.32C690.868 212.32 693.855 212.64 696.895 213.28C699.935 213.92 702.468 214.853 704.495 216.08L700.335 224.96C698.255 223.733 696.148 222.907 694.015 222.48C691.935 222 689.908 221.76 687.935 221.76C685.162 221.76 683.135 222.133 681.855 222.88C680.575 223.627 679.935 224.587 679.935 225.76C679.935 226.827 680.388 227.627 681.295 228.16C682.255 228.693 683.508 229.12 685.055 229.44C686.602 229.76 688.282 230.053 690.095 230.32C691.962 230.533 693.828 230.88 695.695 231.36C697.562 231.84 699.242 232.533 700.735 233.44C702.282 234.293 703.535 235.493 704.495 237.04C705.455 238.533 705.935 240.507 705.935 242.96C705.935 245.627 705.135 248 703.535 250.08C701.935 252.107 699.615 253.707 696.575 254.88C693.588 256.053 689.935 256.64 685.615 256.64ZM740.035 256V247.6L739.235 245.76V230.72C739.235 228.053 738.408 225.973 736.755 224.48C735.155 222.987 732.675 222.24 729.315 222.24C727.022 222.24 724.755 222.613 722.515 223.36C720.328 224.053 718.462 225.013 716.915 226.24L712.435 217.52C714.782 215.867 717.608 214.587 720.915 213.68C724.222 212.773 727.582 212.32 730.995 212.32C737.555 212.32 742.648 213.867 746.275 216.96C749.902 220.053 751.715 224.88 751.715 231.44V256H740.035ZM726.915 256.64C723.555 256.64 720.675 256.08 718.275 254.96C715.875 253.787 714.035 252.213 712.755 250.24C711.475 248.267 710.835 246.053 710.835 243.6C710.835 241.04 711.448 238.8 712.675 236.88C713.955 234.96 715.955 233.467 718.675 232.4C721.395 231.28 724.942 230.72 729.315 230.72H740.755V238H730.675C727.742 238 725.715 238.48 724.595 239.44C723.528 240.4 722.995 241.6 722.995 243.04C722.995 244.64 723.608 245.92 724.835 246.88C726.115 247.787 727.848 248.24 730.035 248.24C732.115 248.24 733.982 247.76 735.635 246.8C737.288 245.787 738.488 244.32 739.235 242.4L741.155 248.16C740.248 250.933 738.595 253.04 736.195 254.48C733.795 255.92 730.702 256.64 726.915 256.64ZM785.666 256V196.64H798.146V256H785.666ZM809.729 256V196.64H822.209V256H809.729ZM860.191 256V247.6L859.391 245.76V230.72C859.391 228.053 858.565 225.973 856.911 224.48C855.311 222.987 852.831 222.24 849.471 222.24C847.178 222.24 844.911 222.613 842.671 223.36C840.485 224.053 838.618 225.013 837.071 226.24L832.591 217.52C834.938 215.867 837.765 214.587 841.071 213.68C844.378 212.773 847.738 212.32 851.151 212.32C857.711 212.32 862.805 213.867 866.431 216.96C870.058 220.053 871.871 224.88 871.871 231.44V256H860.191ZM847.071 256.64C843.711 256.64 840.831 256.08 838.431 254.96C836.031 253.787 834.191 252.213 832.911 250.24C831.631 248.267 830.991 246.053 830.991 243.6C830.991 241.04 831.605 238.8 832.831 236.88C834.111 234.96 836.111 233.467 838.831 232.4C841.551 231.28 845.098 230.72 849.471 230.72H860.911V238H850.831C847.898 238 845.871 238.48 844.751 239.44C843.685 240.4 843.151 241.6 843.151 243.04C843.151 244.64 843.765 245.92 844.991 246.88C846.271 247.787 848.005 248.24 850.191 248.24C852.271 248.24 854.138 247.76 855.791 246.8C857.445 245.787 858.645 244.32 859.391 242.4L861.311 248.16C860.405 250.933 858.751 253.04 856.351 254.48C853.951 255.92 850.858 256.64 847.071 256.64ZM938.286 212.32C941.7 212.32 944.713 213.013 947.326 214.4C949.993 215.733 952.073 217.813 953.566 220.64C955.113 223.413 955.886 226.987 955.886 231.36V256H943.406V233.28C943.406 229.813 942.686 227.253 941.246 225.6C939.806 223.947 937.78 223.12 935.166 223.12C933.353 223.12 931.726 223.547 930.286 224.4C928.846 225.2 927.726 226.427 926.926 228.08C926.126 229.733 925.726 231.84 925.726 234.4V256H913.246V233.28C913.246 229.813 912.526 227.253 911.086 225.6C909.7 223.947 907.7 223.12 905.086 223.12C903.273 223.12 901.646 223.547 900.206 224.4C898.766 225.2 897.646 226.427 896.846 228.08C896.046 229.733 895.646 231.84 895.646 234.4V256H883.166V212.96H895.086V224.72L892.846 221.28C894.34 218.347 896.446 216.133 899.166 214.64C901.94 213.093 905.086 212.32 908.606 212.32C912.553 212.32 915.993 213.333 918.926 215.36C921.913 217.333 923.886 220.373 924.846 224.48L920.446 223.28C921.886 219.92 924.18 217.253 927.326 215.28C930.526 213.307 934.18 212.32 938.286 212.32ZM993.473 256V247.6L992.673 245.76V230.72C992.673 228.053 991.846 225.973 990.193 224.48C988.593 222.987 986.113 222.24 982.753 222.24C980.459 222.24 978.193 222.613 975.953 223.36C973.766 224.053 971.899 225.013 970.353 226.24L965.873 217.52C968.219 215.867 971.046 214.587 974.353 213.68C977.659 212.773 981.019 212.32 984.433 212.32C990.993 212.32 996.086 213.867 999.713 216.96C1003.34 220.053 1005.15 224.88 1005.15 231.44V256H993.473ZM980.353 256.64C976.993 256.64 974.113 256.08 971.713 254.96C969.313 253.787 967.473 252.213 966.193 250.24C964.913 248.267 964.273 246.053 964.273 243.6C964.273 241.04 964.886 238.8 966.113 236.88C967.393 234.96 969.393 233.467 972.113 232.4C974.833 231.28 978.379 230.72 982.753 230.72H994.193V238H984.113C981.179 238 979.153 238.48 978.033 239.44C976.966 240.4 976.433 241.6 976.433 243.04C976.433 244.64 977.046 245.92 978.273 246.88C979.553 247.787 981.286 248.24 983.473 248.24C985.553 248.24 987.419 247.76 989.073 246.8C990.726 245.787 991.926 244.32 992.673 242.4L994.593 248.16C993.686 250.933 992.033 253.04 989.633 254.48C987.233 255.92 984.139 256.64 980.353 256.64ZM1041.89 256.64C1038.1 256.64 1034.85 255.84 1032.13 254.24C1029.41 252.64 1027.33 250.213 1025.89 246.96C1024.45 243.653 1023.73 239.493 1023.73 234.48C1023.73 229.413 1024.47 225.253 1025.97 222C1027.51 218.747 1029.65 216.32 1032.37 214.72C1035.09 213.12 1038.26 212.32 1041.89 212.32C1045.94 212.32 1049.57 213.227 1052.77 215.04C1056.02 216.853 1058.58 219.413 1060.45 222.72C1062.37 226.027 1063.33 229.947 1063.33 234.48C1063.33 238.96 1062.37 242.853 1060.45 246.16C1058.58 249.467 1056.02 252.053 1052.77 253.92C1049.57 255.733 1045.94 256.64 1041.89 256.64ZM1016.45 256V196.64H1028.93V221.68L1028.13 234.4L1028.37 247.2V256H1016.45ZM1039.73 246.4C1041.81 246.4 1043.65 245.92 1045.25 244.96C1046.9 244 1048.21 242.64 1049.17 240.88C1050.18 239.067 1050.69 236.933 1050.69 234.48C1050.69 231.973 1050.18 229.84 1049.17 228.08C1048.21 226.32 1046.9 224.96 1045.25 224C1043.65 223.04 1041.81 222.56 1039.73 222.56C1037.65 222.56 1035.78 223.04 1034.13 224C1032.47 224.96 1031.17 226.32 1030.21 228.08C1029.25 229.84 1028.77 231.973 1028.77 234.48C1028.77 236.933 1029.25 239.067 1030.21 240.88C1031.17 242.64 1032.47 244 1034.13 244.96C1035.78 245.92 1037.65 246.4 1039.73 246.4ZM1097.38 256V247.6L1096.58 245.76V230.72C1096.58 228.053 1095.75 225.973 1094.1 224.48C1092.5 222.987 1090.02 222.24 1086.66 222.24C1084.37 222.24 1082.1 222.613 1079.86 223.36C1077.67 224.053 1075.81 225.013 1074.26 226.24L1069.78 217.52C1072.13 215.867 1074.95 214.587 1078.26 213.68C1081.57 212.773 1084.93 212.32 1088.34 212.32C1094.9 212.32 1099.99 213.867 1103.62 216.96C1107.25 220.053 1109.06 224.88 1109.06 231.44V256H1097.38ZM1084.26 256.64C1080.9 256.64 1078.02 256.08 1075.62 254.96C1073.22 253.787 1071.38 252.213 1070.1 250.24C1068.82 248.267 1068.18 246.053 1068.18 243.6C1068.18 241.04 1068.79 238.8 1070.02 236.88C1071.3 234.96 1073.3 233.467 1076.02 232.4C1078.74 231.28 1082.29 230.72 1086.66 230.72H1098.1V238H1088.02C1085.09 238 1083.06 238.48 1081.94 239.44C1080.87 240.4 1080.34 241.6 1080.34 243.04C1080.34 244.64 1080.95 245.92 1082.18 246.88C1083.46 247.787 1085.19 248.24 1087.38 248.24C1089.46 248.24 1091.33 247.76 1092.98 246.8C1094.63 245.787 1095.83 244.32 1096.58 242.4L1098.5 248.16C1097.59 250.933 1095.94 253.04 1093.54 254.48C1091.14 255.92 1088.05 256.64 1084.26 256.64Z" fill="#5A431D"/>
</svg>
