<svg width="1368" height="989" viewBox="0 0 1368 989" fill="none" xmlns="http://www.w3.org/2000/svg">
<path d="M0.5 835.5C117.7 776.7 91.6667 464 64 315L177.25 651.75M290.5 988.5L177.25 651.75M177.25 651.75L249 557.5L319.5 605.5C395.9 855.9 704.333 820.5 849 771.5C940.5 802.333 1052 821.55 766 651.75C408.5 439.5 612.5 880 766 915C919.5 950 651.5 94.5 820.5 407.5C955.7 657.9 1051.17 611.833 1082 557.5L1110.5 433.5L1200 344C1238.33 501.5 1268.4 704.8 1082 258C895.6 -188.8 1023.33 46.1667 1110.5 219.5L1181 127L1142.5 9.00001C1237.33 34.3333 1412.9 85.7 1356.5 88.5C1300.1 91.3 1258.67 177 1245 219.5" stroke="black"/>
</svg>
