<svg width="815" height="620" viewBox="0 0 815 620" fill="none" xmlns="http://www.w3.org/2000/svg">
<path d="M72.718 242.371C59.3022 242.371 44.6061 244.081 31.591 240.421C13.0221 235.198 9.57767 213.854 5.70933 197.698C2.14123 182.796 -0.534132 164.055 6.24114 149.658C17.0235 126.745 47.3408 97.7716 73.6044 98.2491C101.361 98.7538 110.253 137.833 118.1 158.699C132.141 196.037 136.653 235.381 139.018 274.989C142.909 340.167 145.353 411.906 138.131 476.901C133.97 514.351 123.772 553.303 123.772 590.887C123.772 598.451 123.772 606.014 123.772 613.578C123.772 633.258 128.514 574.491 131.749 555.078C140.655 501.643 142.324 449.519 142.918 395.534C143.32 358.956 163.997 316.02 192.376 292.007C239.44 252.184 232.262 384.945 232.262 404.929C232.262 445.997 232.262 487.065 232.262 528.133C232.262 546.96 243.336 562.961 256.194 575.819C302.013 621.637 345.103 479.084 348.73 452.97C353.281 420.204 351.197 382.562 331.18 354.761C314.103 331.044 296.613 404.559 296.258 411.311C294.24 449.653 299.397 487.434 318.416 521.396C342.191 563.85 377.082 526.463 398.898 500.124C482.53 399.153 520.713 282.819 546.211 155.331C554.575 113.511 558.807 71.4108 564.824 29.2904C566.695 16.1914 568.303 8.03478 557.024 24.3268C507.53 95.818 486.992 186.769 473.352 271.089C463.879 329.647 453.453 391.114 472.288 449.07C488.272 498.249 529.296 479.619 557.733 449.601C587.024 418.683 608.442 382.091 628.642 344.834C673.575 261.958 724.17 179.819 755.923 90.6264C764.175 67.447 769.191 43.4297 774.005 19.3632C779.456 -7.89604 771.13 1.54671 754.505 19.1859C712.717 63.5214 686.755 115.677 661.614 170.576C631.819 235.638 607.976 307.344 608.787 379.579C609.398 433.886 666.009 467.035 717.1 452.438C802.042 428.169 790.668 345.811 790.668 274.28C790.668 242.016 790.668 209.753 790.668 177.49C790.668 170.86 791.726 166.112 786.059 172.88C776.684 184.079 767.138 195.347 756.809 205.676C717.528 244.957 669.893 326.424 710.896 381.352C720.614 394.37 739.619 411.134 756.986 411.134C775.003 411.134 771.885 390.758 782.868 382.77C798.686 371.266 813.004 351.953 813.004 331.716" stroke="#B19393" stroke-width="3" stroke-linecap="round"/>
</svg>
